<?xml version="1.0" encoding="utf-8"?>
<!-- Generator: Adobe Illustrator 27.9.0, SVG Export Plug-In . SVG Version: 6.00 Build 0)  -->
<svg version="1.1" id="Calque_1" xmlns="http://www.w3.org/2000/svg" xmlns:xlink="http://www.w3.org/1999/xlink" x="0px" y="0px"
	 viewBox="0 0 256 256" style="enable-background:new 0 0 256 256;" xml:space="preserve">
<style type="text/css">
	.st0{fill:none;stroke:#000000;stroke-width:7;stroke-miterlimit:10;}
</style>
<path class="st0" d="M116.53,51.16c-23.15,0-26.05,0.1-35.14,0.51c-9.07,0.41-15.27,1.85-20.69,3.96c-5.6,2.18-10.36,5.09-15.1,9.83
	s-7.65,9.49-9.83,15.1c-2.11,5.42-3.55,11.62-3.96,20.69c-0.41,9.09-0.51,11.99-0.51,35.14s0.1,26.05,0.51,35.14
	c0.41,9.07,1.85,15.27,3.96,20.69c2.18,5.6,5.09,10.36,9.83,15.1s9.49,7.65,15.1,9.83c5.42,2.11,11.62,3.55,20.69,3.96
	c9.09,0.41,11.99,0.51,35.14,0.51s26.05-0.1,35.14-0.51c9.07-0.41,15.27-1.85,20.69-3.96c5.6-2.18,10.36-5.09,15.1-9.83
	s7.65-9.49,9.83-15.1c2.11-5.42,3.55-11.62,3.96-20.69c0.41-9.09,0.51-11.99,0.51-35.14s-0.1-26.05-0.51-35.14
	c-0.41-9.07-1.85-15.27-3.96-20.69c-2.18-5.6-5.09-10.36-9.83-15.1s-9.49-7.65-15.1-9.83c-5.42-2.11-11.62-3.55-20.69-3.96
	C142.58,51.26,139.68,51.16,116.53,51.16z M116.53,89.64c-25.82,0-46.75,20.93-46.75,46.75s20.93,46.75,46.75,46.75
	s46.75-20.93,46.75-46.75S142.35,89.64,116.53,89.64z M180.15,84.71c0,5.65-4.58,10.23-10.23,10.23c-5.65,0-10.23-4.58-10.23-10.23
	c0-5.65,4.58-10.23,10.23-10.23C175.57,74.48,180.15,79.06,180.15,84.71z"/>
<circle class="st0" cx="116.53" cy="136.39" r="29.9"/>
</svg>
