<?xml version="1.0" encoding="UTF-8"?>
<svg id="Calque_1" data-name="Calque 1" xmlns="http://www.w3.org/2000/svg" viewBox="0 0 505.82 160.25">
  <defs>
    <style>
      .cls-1 {
        stroke: #000;
        stroke-miterlimit: 10;
        stroke-width: 4px;
      }

      .cls-1, .cls-2 {
        fill: #fff;
      }

      .cls-3, .cls-2, .cls-4 {
        stroke-width: 0px;
      }

      .cls-4 {
        fill: #020203;
      }
    </style>
  </defs>
  <g>
    <path class="cls-3" d="m473.82,93.45c6.3,22.7-.2,37.9-5.6,47.4-3.1,5.5-8.6,9.4-14.9,10.8-29.2,6.5-51.1,2.9-53.2-4.6-.9-3.2,1.6-7.1,4.5-11.6,2-3.1,4.7-7.4,4.2-9.2,0-.1-.1-.4-.7-.7-2.8-1.4-11.2,8.7-15.3,13.6-1.2,1.5-2.4,2.9-3.6,4.2-5,5.7-12.2,10.4-19.5,12.5-5.1,1.5-9.7,2.1-13.9,2.1-11.2,0-18.9-4.2-22-6.1-3.2,2.7-7.3,4.4-11.7,4.6l-50,.2c-5.7.3-11.5-3.6-15.4-10.4-3.3-5.7-7.3-24.9-7.8-37.3-.5-12.5.9-24.8,4-36.5,3.8-14.2,2.4-17.5,1.8-18.1-.1-.1-.2-.3-.9-.3-2,0-5,3.7-7.4,14-1,4-1.5,8.2-1.5,12.4-.1,14.1-.1,49.7,0,56,0,3.1-.3,6-.9,8.5-1.6,6.6-7.4,11.5-14.4,12.1-21.4,1.8-25.9,2.1-27.1,2.1h0c-4.1-.1-7.1-1.4-8.9-3.9-2.5-3.5-2.6-9-.2-16.3.9-2.9,2.3-5.9,4.1-9.1,3.5-6.2,4.4-11,2.6-13.7-2.2-3.4-8.4-3.7-11.2-3.5-1.9,1.3-3.7,2.6-5.4,3.9-6,4.5-6,7.6-6,7.9.7,2.1,3.5,3,5.9,3.9,2.2.8,4.1,1.4,4.9,3.1.3.6.5,1.4.1,2.6-1.9,11.8-6.6,19.6-13.9,23.2-2.8,1.4-6,2.1-9.4,2.1-4.2,0-8.6-1.1-12.8-3.3-4.8-2.6-8.1-7.7-9.8-11.3-5.4,7.9-11.4,12.5-18.1,13.6-9,1.5-16.3-3.8-19.3-6.4-.7,1.1-1.3,2.1-1.7,2.7l-.5.7c-2.3,3.5-3.8,4.9-8.9,4.9-4,0-10.3-.9-21.1-2.5-5.1-.7-8.7-3.2-10.9-7.3-7.9-15.2,8.6-48.5,9.5-50.4,6.3-14,11-27.4-6.5-37.5,20.6,11,16.8,24.1,10.2,38.6v.1c0,.1-4.3,8.5-7.5,18.6-4.2,13-4.9,22.7-2.1,28.2,1.5,2.9,4.1,4.6,7.9,5.2,12.2,1.8,18.3,2.6,21.5,2.4,2.5-.1,2.9-.7,4.5-3.1l.4-.6c.3-.6,4.2-6.8,6.3-9,2.1-2.3,4.9-3.2,7.6-4.2,5.2-1.8,10.1-3.6,11.4-14,.2-1.7.6-4.3,1.1-7.1.5-2.8,1-5.7,1.2-7.7,1.2-9.2,4.8-30.5,7-36.1.1-.2,2.1-5.7,6.4-11.1,5.9-7.3,13.1-10.8,21-9.9,3,.3,4.9,2.3,5,5.1.1,3.3-2.5,11.7-28.9,18.4-2.1,6.5-5.3,25.4-6.4,34.2-.3,2.1-.8,5-1.3,7.9-.5,2.7-.9,5.3-1.1,6.9-1.6,12.9-8.5,15.4-14.1,17.3-2.5.9-4.6,1.6-6,3.1-.5.5-1.1,1.4-1.8,2.4,2.2,2,8.7,7.1,16.4,5.8,7.9-1.3,15-8.8,21.2-22.3-.4-.3-1.2-.6-1.8-.8-2.5-1-6.6-2.7-6.6-7.5-.1-1.2,0-9,12.8-12.9,38.5-14.5,41-53.4,41.1-56.2v-.5c1.4-14.9-3.8-23.9-16.8-29.2-10.7-4.1-20.2-4-28.1.4-18.7,10.2-25.1,41.6-27.2,51.9-.4,1.8-.6,3.1-.9,3.8-4,16-12.2,42.5-21.3,41.5h-.4l-.4-.2c-2.6-1.3-3.3-5.3-2.5-13.3.6-5.4,1.9-12.7,3.9-21.5,3.5-15,7.9-29.8,7.9-30,4-15,3.6-24.8-1.3-30.8-3.8-4.8-11.9-5.5-16.5-5.5-2.1,0-3.4.2-3.5.2-9.6,1.2-18.7,14.2-22.5,22.7-1.5,3.2-2.2,6.7-2.2,10.4v.7c.1,1,.3,1.9.7,2.6-.7-1.2-4.6-.7-4.7-2.3v-.9c0-4.3.9-8.4,2.6-12.1,5-11.1,15.2-23.7,25.7-25.1.2,0,16.5-2,23.6,6.8,7.6,9.3,4.8,24.2,2.1,34.5-9.8,32.9-13.6,56-11.6,59.8,1.7-.7,8.2-5.3,16.6-38.4v-.1c.2-.5.4-1.8.8-3.4,2.4-11.9,8.9-43.5,29.2-54.6,9.1-5,19.7-5.1,31.6-.6,5.9,2.4,10.3,5.5,13.5,9.5,1.9-2.5,5.4-6.1,10.3-7.5,4.1-1.2,8.3-.5,12.5,1.8,2.5,1.4,4.8,3.2,7,4.9,4.4,3.4,8.6,6.7,13.1,6,3.7-.6,7.6-3.8,11.8-9.9,2.2-3.2,5.2-5.6,8.6-7,4-1.6,7.7-1.5,10.7.2,4.6,2.6,7.7,8.8,9.2,18.5.4,2.7,2.3,15.4,2.9,21.9.8,8.9-.6,23.8-1.3,31-.1,5.5.6,12.8,3.1,15.3.6.6,1.1.8,1.9.8h.2c.1,0,.2-.1.3-.3.3-.4,1.2-2.2,0-8-1.4-6.7-1.6-13.2-.4-19.5.4-2.3.9-4.4,1.5-6.3,2.7-9.5,2.4-19.4-.6-28.6-1.2-3.6-2.1-6.3-4.5-11.1v-.1c-.9-2.1-1.2-5.5.6-8.1,1-1.4,3-3.1,6.9-2.9.7,0,1.5.1,2.8.3,1.5.2,3.4.5,5.4.8,3.6.6,8,1.3,8.9,1.5h.2c1.6.3,4.7,1,6.9,5.3,3.4-1.8,9.5-5,11.9-5.4,1.4-.3,4,.1,6.1,1.2,1.8,1,4,3,4.2,6.9.4,5.9-11.5,47.6-15.1,60.3-.2.8-.3,1.6-.2,2.4,0,.1.1.2.2.4.1-.1.2-.3.4-.5.2-.3.4-.7.6-1.1l.2-.4c5.8-12.7,11.3-22,16.4-27.8,6.5-8.2,6.6-15,6.7-22.9,0-2.2.1-4.4.2-6.7.6-5.8,2.6-8.1,4.1-9.8l.3-.4c1.8-2,24.9-11.5,44.2-5.8h.1c.1.1.3.1.6.2,7.6,2.5,12.1,7,14.7,12.2q0-.1.1-.2c2.4-8,7.6-12.9,14.9-14.1h.4c15.6-1.6,29.2,1.7,40.5,9.6,6.9,4.9,9.4,12.8,7.3,22.9-1.8,8.4-8.2,20.5-12.4,21.2-5.8,1.1-13.2-7.6-14.1-9-2.4-3.5-9.2-13.5-12.2-15.8v.9c.3,18.2,8.2,24.5,13.9,29.1l.9.7c7,5.6,8,7.3,5.5,15.4-1.3,4.4-7.5,9.8-13.5,15.1-3,2.6-7.3,6.4-8.6,8.3h1c7.8-.1,12.8-4.8,16.4-8.9,6.3-9,12-15.4,17-18.9,2.5-1.8,5.9-2.2,8.9-1.2,2.5.7,4.7,3,5.5,6Zm-9.2,45.3c5.1-8.8,11.2-23,5.3-44.3-.6-2.3-2.4-3.2-3.3-3.6-1.8-.6-3.8-.4-5.2.6-4.5,3.3-9.9,9.3-16,18l-.1.2c-3.8,4.4-9.9,10.3-19.5,10.4-1.1,0-4.2.1-5.2-2.3-1.2-3.1,2.4-6.4,10.1-13.1,5-4.4,11.3-9.9,12.3-13.2,1.9-6.1,1.8-6.2-4.2-11.1l-.9-.7c-6-4.8-15.1-12.1-15.4-32.2,0-1.1-.1-4.5,2.5-5.3,3.2-1,6.9,2.8,17.1,17.9,1.8,2.6,7.5,7.6,9.9,7.3,1.8-1.1,9.1-11.3,9.9-22.2.5-6.5-1.6-11.5-6.2-14.7-10.5-7.4-23.2-10.4-37.8-8.9h-.2c-5.7,1-9.6,4.8-11.6,11.3-1.6,5.3-.9,9.2,1.1,14.9.4,1.2.8,2.2,1.1,3.2,1.8,5,2.7,7.5,3.3,11.7.1.7.2,1.5.4,2.3,1.5,9.4,3.8,23.5-14.2,29.1-13.8,4.3-13.1,10.5-12.9,12.8,0,.4.1.8,0,1.2,0,8.8-2.4,15.5-7.2,19.8-6.9,6.1-15.9,4.9-16.3,4.9h-.1c-5.4-1.1-9-3.4-10.7-6.9-2-4.3-1.1-10.1,2.8-17.7,4.5-8.7,23.5-24.8,31.4-31.3,9.1-7.4,15.4-17.8,16.2-26.4,1.2-14.1-3.7-23.1-14.8-26.8-.2-.1-.5-.2-.6-.2-17.1-5.1-37.6,2.9-40,4.6l-.2.3c-1.3,1.5-2.6,3-3.1,7.5-.2,2.2-.2,4.3-.2,6.4-.1,7.9-.2,16.1-7.7,25.4l-.1.1c-4.8,5.4-10.1,14.4-15.8,26.8l-.2.4c-.3.7-.7,1.3-1.1,1.9-1.8,2.3-3.5,2.5-4.6,2.2-2.1-.6-3-3-3.2-4-.1-1.3,0-2.6.4-4,7.7-26.5,15.3-54.9,15-58.8-.1-1.4-.6-2.5-1.5-3.2-1.3-1-3.1-1.3-3.7-1.3h-.3c-1.5.2-7,3-11.2,5.3,1.9,7,8.3,34.1-1.4,48.9-1.2,2-2.6,4-4.2,6.1-3.3,4.4-7,9.4-10.2,17.3,2.1,3.3,7.1,5.5,10,6.3h.1c5.7,1.9,7.6,5.2,8.1,7.6,1.1,4.5-1.6,9.1-3.1,10.6-2.1,2.1-4.7,3.2-7.7,3.2h-.2c-3.6,0-7.2-1.6-9.8-4.4-5-5.4-5.7-13.1-2-22.9,3.6-9.5,7.9-15.3,11.4-20,1.5-2.1,2.9-3.9,4-5.7l.1-.1c10-15.2.6-46.7.5-47-1.4-4.2-3.4-4.6-4.8-4.9l-.3-.1c-1.3-.3-12.2-2-15.3-2.4h-.9c-1.8-.1-3,.3-3.6,1.2-.8,1.1-.6,2.9-.1,4.2,2.4,5,3.5,7.9,4.7,11.5,3.3,10,3.6,20.7.7,31-.5,1.8-1,3.9-1.4,6-1.1,5.7-1,11.7.3,17.8,1.2,5.7.9,9.5-1,11.7-1.1,1.2-2.5,1.6-3.4,1.5-1.8.1-3.4-.6-4.8-2-4.2-4.2-4.4-14.2-4.3-18.4v-.1c.6-7,2-21.7,1.3-30.3-.6-6.4-2.4-19-2.9-21.6-1.3-8.3-3.8-13.7-7.2-15.6-2-1.1-4.4-1.1-7.2,0-2.7,1.1-5,3-6.8,5.6-4.9,7-9.6,10.8-14.5,11.6-6.1.9-11.2-3-16.1-6.8-2.1-1.6-4.3-3.3-6.5-4.6-3.2-1.8-6.4-2.3-9.4-1.5-4.6,1.3-7.8,5.4-9,7.2,2.4,4.3,3.6,9.5,3.6,15.5,0,1.5-.1,3.2-.2,4.8.1,3.1-1.2,13.4-6,24.4-5.2,11.8-15.9,27.6-37.8,35.8h-.1c-10.2,3.1-10,8.6-10,8.9v.2c0,1.9,1.3,2.7,4.1,3.8,1.9.8,5.5,2.2,4.2,5.8l-.1.1c-1.2,2.6-2.4,5-3.7,7.2.9,2.4,4,9.1,9.1,11.8,6.3,3.4,13.3,3.8,18.5,1.2,6.1-3.1,10-9.9,11.7-20.4v-.1c-.5-.3-1.6-.7-2.4-.9-3-1-7.1-2.4-8.5-6.6-.2-.6-1.4-5.7,7.4-12.3,3.6-2.7,7.6-5.4,11.4-8,12.1-8.2,24.6-16.7,24.3-25.3,0-14,2.6-24.2,7.2-29,2.4-2.5,6.4-2.6,8.8-.3.8.7,1.7,2,1.6,4.2,0,4.9-4.6,11.6-13.4,19.8-.1,1.7-.1,3.4-.1,5.2.4,10.8-12.4,19.5-26.1,28.7-.1.1-.2.2-.4.2,3.3.5,7,1.8,9.1,5,2.8,4.1,1.9,10.2-2.4,18-1.7,3-2.9,5.8-3.8,8.4-1.9,5.9-2.1,10.4-.4,12.7,1.1,1.5,2.9,2.2,5.7,2.3h.1c1.3,0,11.2-.8,26.6-2.1,5.2-.4,9.5-4.1,10.8-9,.5-2.2.8-4.7.8-7.5-.2-6.3-.1-42,0-56.1,0-4.5.6-9,1.6-13.3,2.7-11.4,6.5-17.2,11.3-17.2h0c1.7-.1,3.1.6,4.1,1.8,1.6,2,3,6.3-1.1,21.7-3,11.4-4.3,23.3-3.8,35.4.5,12.7,4.5,30.7,7.2,35.4,3.2,5.5,7.6,8.6,11.8,8.4l50-.2c5.1-.2,9.8-3,12.4-7.4,2-3.4,3.2-6.6,3.5-9.4v-.3l.1-.2c.2-1.5-.1-9.1-6.4-20.1l-.1-.2c-.1-.3-.2-.6-.4-.9-1.3-2.8-3.7-8.1-.9-15.1,1.2-3.1,7.1-10.3,16.8-21.8,6.5-7.8,13.2-15.8,15.5-19.6,1.2-2,1.5-4.9,1.9-7.7v-.4c.1-1.4,1-9.4,6.5-11,1.7-.5,4.3.3,5.6,2.6,1.8,3.2,1.2,9.2-11.2,19.7-2.9,4.2-8.9,11.4-15.1,18.9-7.1,8.4-15,18-16.1,20.7-2.1,5.3-.3,9.3.9,11.9.1.3.3.6.4.9,6.7,11.8,7.3,20.4,6.8,23-.4,3.4-1.7,7.1-4.1,11-.4.6-.8,1.2-1.2,1.8,4.2,2.6,15.6,7.9,31.9,3.2,6.6-1.9,13.1-6.1,17.6-11.3,1.1-1.2,2.3-2.6,3.5-4.1,7.2-8.6,14.7-17.6,20.3-14.6,1.4.7,2.3,1.9,2.7,3.3,1,3.5-1.8,7.9-4.7,12.5-1.9,2.9-4.4,6.9-4,8.4,1,3.4,19.1,8.3,48.5,1.8,5-1.5,9.5-4.7,12-9.2Zm-68.1-48.4c14.6-4.6,12.9-15.2,11.4-24.6-.1-.8-.3-1.6-.4-2.4-.5-3.7-1.3-5.9-2.9-10.3-1.6,9.2-8.1,19.4-17.3,27-6,5-26.1,21.8-30.4,30.1-3.3,6.3-4.2,11.1-2.7,14.1,1.1,2.3,3.7,3.8,7.8,4.7.7.1,7.9.7,13.1-3.9,3.9-3.5,5.9-9.1,5.8-16.8v-.8c-.4-3-1.3-11.8,15.6-17.1Zm-28.4-38.2c4.4-4.7,5.5-7.9,4.9-9.3-.3-.7-.9-.8-1-.8h0c-2.5.7-3.5,6-3.5,7.4v.6c-.2.6-.3,1.4-.4,2.1Zm-63.7,74.6c.7-.8,2.7-3.9,2-6.8-.5-2.1-2.3-3.6-5.5-4.7-1.4-.4-6.8-2.1-10.5-5.7-2.1,6.9-1.4,12.3,2.1,16.1,1.9,2,4.4,3.2,7,3.1,2,0,3.6-.7,4.9-2Zm-74.1-72.3c0-.4-.1-1-.4-1.3-.4-.4-.9-.5-1.4-.5-.6,0-1.2.3-1.8.8-2.5,2.6-4.4,7.8-5.3,14.7,7.9-8,8.9-12.2,8.9-13.7Zm-71.7,9.3c3.3-2.4,4.5-4.5,4.4-5.7,0-.5-.1-1.1-1.4-1.2-.6-.1-1.2-.1-1.9-.1-10.3,0-16.8,9.4-19.6,14.8,8.3-2.3,14.4-4.9,18.5-7.8Z"/>
    <path class="cls-4" d="m469.92,94.45c5.9,21.3-.2,35.5-5.3,44.3-2.6,4.5-7,7.7-12.2,8.9-29.3,6.5-47.5,1.6-48.5-1.8-.4-1.5,2.1-5.4,4-8.4,2.9-4.6,5.7-8.9,4.7-12.5-.4-1.4-1.3-2.5-2.7-3.3-5.6-2.9-13.1,6-20.3,14.6-1.2,1.5-2.4,2.9-3.5,4.1-4.5,5.1-11,9.3-17.6,11.3-16.3,4.8-27.7-.6-31.9-3.2.4-.6.9-1.2,1.2-1.8,2.3-3.9,3.7-7.6,4.1-11,.6-2.5,0-11.1-6.8-23-.1-.3-.2-.6-.4-.9-1.2-2.6-3-6.6-.9-11.9,1.1-2.7,9.1-12.2,16.1-20.7,6.3-7.5,12.3-14.7,15.1-18.9,12.4-10.5,13-16.5,11.2-19.7-1.3-2.3-3.9-3.1-5.6-2.6-5.5,1.6-6.4,9.6-6.5,11v.4c-.3,2.8-.6,5.7-1.9,7.7-2.3,3.8-9,11.8-15.5,19.6-9.6,11.5-15.5,18.7-16.8,21.8-2.8,6.9-.4,12.2.9,15.1.1.3.3.6.4.9l.1.2c6.3,11,6.7,18.6,6.4,20.1l-.1.2v.3c-.3,2.9-1.5,6-3.5,9.4-2.7,4.4-7.3,7.2-12.4,7.4l-50,.2c-4.2.2-8.7-3-11.8-8.4-2.8-4.7-6.8-22.8-7.2-35.4-.5-12.1.8-24,3.8-35.4,4-15.3,2.7-19.6,1.1-21.7-1-1.2-2.4-1.9-4.1-1.8h0c-4.8,0-8.6,5.8-11.3,17.2-1,4.3-1.6,8.8-1.6,13.3-.1,14.2-.1,49.8,0,56.1,0,2.8-.2,5.3-.8,7.5-1.2,5-5.6,8.6-10.8,9-15.4,1.3-25.3,2.1-26.6,2.1h-.1c-2.8-.1-4.6-.8-5.7-2.3-1.7-2.3-1.5-6.9.4-12.7.9-2.7,2.1-5.4,3.8-8.4,4.3-7.8,5.1-13.8,2.4-18-2.1-3.2-5.8-4.5-9.1-5,.1-.1.2-.2.4-.2,13.6-9.2,26.5-17.9,26.1-28.7,0-1.8.1-3.5.1-5.2,8.9-8.3,13.4-14.9,13.4-19.8,0-2.2-.9-3.5-1.6-4.2-2.4-2.3-6.4-2.1-8.8.3-4.6,4.7-7.2,15-7.2,28.9.3,8.6-12.2,17.1-24.3,25.3-3.9,2.6-7.9,5.3-11.4,8-8.8,6.6-7.6,11.7-7.4,12.3,1.4,4.1,5.5,5.5,8.5,6.6.8.3,1.9.6,2.4.9v.1c-1.7,10.5-5.6,17.4-11.7,20.4-5.2,2.6-12.2,2.2-18.5-1.2-5.1-2.7-8.1-9.5-9.1-11.8,1.3-2.2,2.5-4.6,3.7-7.2l.1-.1c1.3-3.5-2.3-5-4.2-5.8-2.8-1.1-4.1-1.9-4.1-3.8v-.2c0-.2-.2-5.7,10-8.9h.1c21.8-8.2,32.6-24,37.8-35.8,4.8-10.9,6.1-21.3,6-24.4.1-1.7.2-3.3.2-4.8,0-6-1.2-11.2-3.6-15.5,1.2-1.8,4.4-5.9,9-7.2,3-.8,6.2-.4,9.4,1.5,2.2,1.2,4.4,2.9,6.5,4.6,4.9,3.8,10,7.8,16.1,6.8,4.9-.7,9.6-4.5,14.5-11.6,1.8-2.5,4.1-4.5,6.8-5.6,2.8-1.1,5.2-1.1,7.2,0,3.4,1.9,5.9,7.3,7.2,15.6.4,2.6,2.3,15.2,2.9,21.6.8,8.6-.6,23.2-1.3,30.3v.1c-.1,4.1.1,14.2,4.3,18.4,1.3,1.3,3,2,4.8,2,.9,0,2.3-.3,3.4-1.5,1.9-2.1,2.2-5.9,1-11.7-1.3-6.1-1.4-12.1-.3-17.8.4-2.2.9-4.2,1.4-6,2.9-10.3,2.6-21-.7-31-1.2-3.6-2.2-6.5-4.7-11.5-.5-1.2-.6-3.1.1-4.2.6-.9,1.8-1.3,3.6-1.2h.9c3.1.4,14,2.1,15.3,2.4l.3.1c1.4.3,3.4.7,4.8,4.9.1.3,9.5,31.9-.5,47l-.1.1c-1.1,1.8-2.4,3.6-4,5.7-3.5,4.7-7.8,10.5-11.4,20-3.7,9.8-3,17.5,2,22.9,2.6,2.8,6.2,4.4,9.8,4.4h.2c3-.1,5.6-1.1,7.7-3.2,1.5-1.5,4.2-6.1,3.1-10.6-.6-2.4-2.5-5.7-8.1-7.6h-.1c-2.9-.8-7.9-3-10-6.3,3.2-7.9,6.9-12.9,10.2-17.3,1.5-2.1,3-4,4.2-6.1,9.7-14.8,3.3-41.9,1.4-48.9,4.2-2.3,9.7-5,11.2-5.3h.3c.6,0,2.4.2,3.7,1.3.9.8,1.4,1.8,1.5,3.2.3,3.9-7.3,32.4-15,58.8-.4,1.3-.5,2.7-.4,4,.1,1.1,1.1,3.5,3.2,4,1.1.3,2.9.2,4.6-2.2.4-.5.8-1.1,1.1-1.9l.2-.4c5.6-12.3,11-21.4,15.8-26.8l.1-.1c7.4-9.3,7.5-17.5,7.7-25.4,0-2.1.1-4.3.2-6.4.5-4.4,1.8-6,3.1-7.5l.2-.3c2.4-1.7,22.9-9.7,40-4.6.2.1.4.1.6.2,11.1,3.7,16,12.7,14.8,26.8-.8,8.6-7.1,18.9-16.2,26.4-8,6.5-26.9,22.6-31.4,31.3-3.9,7.6-4.9,13.4-2.8,17.7,1.7,3.5,5.3,5.8,10.7,6.9h.1c.4.1,9.5,1.2,16.3-4.9,4.8-4.3,7.3-10.9,7.2-19.8v-1.2c-.2-2.3-.8-8.4,12.9-12.8,17.9-5.6,15.6-19.8,14.2-29.1-.1-.8-.2-1.6-.4-2.3-.6-4.2-1.5-6.7-3.3-11.7-.4-.9-.7-2-1.1-3.2-2-5.7-2.7-9.5-1.1-14.9,2-6.5,5.9-10.3,11.6-11.3h.2c14.6-1.5,27.3,1.5,37.8,8.9,4.6,3.2,6.7,8.2,6.2,14.7-.8,10.8-8,21.1-9.9,22.2-2.5.3-8.1-4.7-9.9-7.3-10.3-15-14-18.9-17.1-17.9-2.5.8-2.5,4.2-2.5,5.3.3,20.1,9.4,27.3,15.4,32.2l.9.7c6,4.8,6.1,4.9,4.2,11.1-1,3.3-7.3,8.8-12.3,13.2-7.6,6.7-11.2,10-10.1,13.1.9,2.4,4.1,2.3,5.2,2.3,9.5-.1,15.7-6,19.5-10.4l.1-.2c6.1-8.7,11.5-14.7,16-18,1.4-1,3.4-1.2,5.2-.6,1.2.8,2.8,1.7,3.5,4Z"/>
    <path class="cls-4" d="m173.62,24.35c13,5.3,18.2,14.4,16.8,29.2v.5c-.1,2.8-2.6,41.7-41.1,56.2-12.7,3.9-12.9,11.8-12.8,12.9,0,4.8,4.2,6.5,6.6,7.5.6.2,1.4.6,1.8.8-6.1,13.5-13.3,21-21.2,22.3-7.7,1.3-14.2-3.8-16.4-5.8.7-1,1.3-1.8,1.8-2.4,1.4-1.5,3.5-2.3,6-3.1,5.6-2,12.5-4.4,14.1-17.3.2-1.6.6-4.2,1.1-6.9.5-2.9,1-5.8,1.3-7.9,1.1-8.8,4.4-27.7,6.4-34.2,26.4-6.7,29.1-15.1,28.9-18.4-.1-2.8-2-4.8-5-5.1-7.8-.8-15.1,2.6-21,9.9-4.3,5.4-6.4,10.9-6.4,11.1-2.2,5.6-5.8,26.9-7,36.1-.2,2-.8,4.9-1.2,7.7-.5,2.8-.9,5.4-1.1,7.1-1.3,10.4-6.2,12.1-11.4,14-2.7.9-5.5,1.9-7.6,4.2-2,2.2-5.9,8.4-6.3,9l-.4.6c-1.6,2.4-2,3-4.5,3.1-3.3.2-9.3-.6-21.5-2.4-3.8-.6-6.3-2.2-7.9-5.2-2.8-5.5-2.1-15.2,2.1-28.2,3.2-10.1,7.5-18.5,7.5-18.6v-.1c6.6-14.6,10.3-27.6-10.2-39.2-.3-.2-.6-.3-.9-.5-.1-.1-.2-.1-.3-.2-2.4-1.3-3.3-2.1-4.3-3.9-.1-.1-.2-.3-.2-.4-.4-.7-.6-1.6-.7-2.6v-.7c0-3.7.8-7.2,2.2-10.5,3.8-8.5,13-21.5,22.5-22.7.1,0,1.4-.2,3.5-.2,4.6,0,12.6.7,16.5,5.5,4.9,6,5.3,15.8,1.3,30.8-.1.2-4.4,14.9-7.9,30-2.1,8.9-3.4,16.1-3.9,21.5-.8,8-.1,12,2.5,13.3l.4.2h.4c9.2,1,17.3-25.5,21.3-41.5.2-.7.5-1.9.9-3.8,2.1-10.3,8.5-41.6,27.2-51.9,7.9-3.8,17.4-3.9,28.1.2Z"/>
    <path class="cls-3" d="m59.52,57.35c1,1.8,1.9,2.6,4.3,3.9-2.7-1.4-2.8-1.3-4.3-3.9Z"/>
  </g>
  <g>
    <path class="cls-3" d="m464.32,85.85c6.3,22.7-.2,37.9-5.6,47.4-3.1,5.5-8.6,9.4-14.9,10.8-29.3,6.5-51.1,2.9-53.2-4.6-.9-3.2,1.6-7.1,4.5-11.6,2-3.1,4.7-7.4,4.2-9.2,0-.1-.1-.4-.7-.7-2.8-1.4-11.2,8.8-15.3,13.6-1.2,1.5-2.4,2.9-3.6,4.2-5,5.7-12.2,10.4-19.5,12.5-5.1,1.5-9.7,2.1-13.9,2.1-11.2,0-18.9-4.2-22-6.1-3.2,2.7-7.3,4.4-11.7,4.6l-50,.2c-5.7.3-11.5-3.6-15.4-10.4-3.3-5.7-7.3-24.9-7.8-37.3-.5-12.5.9-24.8,4-36.5,3.8-14.2,2.4-17.5,1.8-18.1-.1-.1-.2-.3-.9-.3-2,0-5,3.7-7.4,14-.9,4-1.4,8.2-1.5,12.4-.1,14.1-.1,49.7,0,56,0,3.1-.3,6-.9,8.5-1.6,6.6-7.4,11.5-14.4,12.1-21.4,1.8-25.9,2.1-27.1,2.1h0c-4.1-.1-7.1-1.4-8.9-4-2.5-3.5-2.6-9-.2-16.3.9-2.9,2.3-5.9,4.1-9.1,3.5-6.2,4.4-11,2.6-13.7-2.2-3.4-8.4-3.7-11.2-3.5-1.9,1.3-3.7,2.6-5.4,3.9-6,4.5-6,7.5-6,7.9.7,2.1,3.5,3,5.9,3.9,2.2.7,4.1,1.4,4.9,3.1.3.6.5,1.4.1,2.6-1.9,11.8-6.6,19.6-13.9,23.2-2.8,1.4-6,2.1-9.4,2.1-4.2,0-8.6-1.1-12.8-3.3-4.8-2.6-8-7.7-9.8-11.2-5.4,7.9-11.5,12.5-18.1,13.6-9,1.5-16.3-3.8-19.3-6.4-.7,1.1-1.3,2.1-1.7,2.7l-.5.7c-2.3,3.5-3.8,4.9-8.9,4.9-4,0-10.3-.9-21.1-2.5-5.1-.7-8.7-3.2-10.9-7.3-7.8-15.7,8.7-49,9.6-50.9,6.4-14.2,9.2-24.3-9.4-34.5-3.2-1.7-4.8-3-6.4-6.1-.7-1.2-1-2.6-1.2-4.2v-.9c0-4.3.9-8.4,2.6-12.1,5-11.1,15.2-23.7,25.7-25.1.2,0,16.5-2,23.6,6.8,7.6,9.4,4.8,24.2,2.1,34.5-9.9,32.8-13.6,56-11.7,59.8,1.7-.7,8.2-5.3,16.6-38.4v-.1c.2-.5.4-1.8.8-3.4,2.4-11.9,8.9-43.5,29.2-54.6,9.1-5,19.7-5.1,31.6-.6,5.9,2.4,10.4,5.5,13.5,9.5,1.9-2.5,5.4-6.1,10.3-7.5,4.1-1.2,8.3-.5,12.5,1.8,2.5,1.4,4.8,3.2,7,4.9,4.4,3.4,8.6,6.7,13.1,6,3.7-.6,7.5-3.8,11.8-9.9,2.2-3.2,5.2-5.6,8.6-7,3.9-1.6,7.7-1.5,10.7.2,4.6,2.6,7.7,8.8,9.2,18.5.4,2.7,2.3,15.4,2.9,21.9.8,8.9-.6,23.8-1.3,31-.1,5.5.6,12.8,3.1,15.3.6.6,1.2.8,1.9.8h.2c.1,0,.2-.1.3-.3.3-.4,1.2-2.2,0-8-1.4-6.7-1.6-13.2-.4-19.4.4-2.3.9-4.4,1.5-6.4,2.7-9.5,2.4-19.4-.6-28.6-1.2-3.6-2.2-6.3-4.5-11.1v-.1c-.9-2.1-1.2-5.5.6-8.1,1-1.4,3-3.1,6.9-2.9.7,0,1.5.1,2.8.3,1.5.2,3.4.5,5.4.8,3.6.6,8,1.3,8.9,1.5h.2c1.6.3,4.7,1,6.9,5.3,3.4-1.8,9.5-5,11.9-5.4,1.4-.3,4,0,6.1,1.2,1.8,1,4,3,4.2,6.9.4,5.9-11.5,47.6-15.1,60.3-.2.8-.3,1.6-.2,2.4,0,.1.1.2.1.4.1-.1.2-.3.4-.5.2-.3.4-.7.6-1.1l.2-.4c5.8-12.7,11.3-22,16.4-27.8,6.5-8.2,6.6-15,6.7-22.9,0-2.2.1-4.4.2-6.7.6-5.8,2.6-8.1,4.1-9.8l.3-.4c1.8-2,24.9-11.5,44.2-5.8h.1c.1.1.3.1.6.2,7.6,2.5,12.1,7,14.7,12.2q0-.1.1-.2c2.5-8,7.6-12.9,14.9-14.1h.4c15.6-1.6,29.2,1.7,40.5,9.6,6.9,4.9,9.4,12.8,7.3,22.9-1.8,8.4-8.2,20.5-12.4,21.2-5.8,1.1-13.2-7.6-14.1-9-2.4-3.5-9.2-13.5-12.2-15.8v.9c.3,18.1,8.2,24.5,13.9,29.1l.9.7c7,5.6,8,7.3,5.5,15.4-1.3,4.4-7.5,9.8-13.5,15.1-3,2.6-7.4,6.4-8.6,8.3h1c7.8-.1,12.8-4.8,16.4-8.9,6.3-9,12-15.4,16.9-18.9,2.5-1.8,5.9-2.2,8.9-1.2,2.8,1.1,5,3.4,5.8,6.4Zm-9.1,45.4c5.1-8.8,11.2-23,5.3-44.3-.6-2.3-2.4-3.2-3.3-3.6-1.8-.6-3.8-.4-5.2.6-4.5,3.3-10,9.3-16.1,18l-.1.2c-3.8,4.4-9.9,10.3-19.5,10.4-1.1,0-4.3.1-5.2-2.3-1.2-3.1,2.4-6.4,10.1-13.1,5-4.4,11.3-9.9,12.3-13.2,1.9-6.2,1.8-6.2-4.2-11.1l-.9-.7c-6-4.8-15.1-12.1-15.4-32.2,0-1.1-.1-4.5,2.5-5.3,3.2-1,6.9,2.8,17.1,17.9,1.8,2.6,7.5,7.6,9.9,7.3,1.8-1.1,9.1-11.3,9.9-22.2.5-6.5-1.6-11.5-6.2-14.7-10.5-7.4-23.2-10.4-37.8-8.9h-.2c-5.7,1-9.6,4.8-11.6,11.3-1.6,5.3-.9,9.2,1.1,14.9.4,1.2.8,2.2,1.1,3.2,1.8,5,2.7,7.5,3.3,11.7.1.7.2,1.5.4,2.3,1.5,9.3,3.8,23.5-14.2,29.1-13.8,4.3-13.1,10.4-12.9,12.8,0,.4.1.8,0,1.2,0,8.8-2.4,15.5-7.2,19.8-6.9,6.1-15.9,4.9-16.3,4.9h-.1c-5.4-1.1-9-3.4-10.7-6.9-2-4.3-1.1-10.1,2.8-17.7,4.5-8.7,23.5-24.8,31.4-31.3,9.1-7.4,15.4-17.8,16.2-26.4,1.3-14.1-3.7-23.1-14.8-26.8-.2-.1-.5-.2-.6-.2-17.1-5.1-37.6,2.9-40,4.6l-.2.3c-1.3,1.5-2.6,3.1-3.1,7.5-.2,2.1-.2,4.3-.2,6.4-.1,7.9-.2,16.1-7.7,25.4l-.1.1c-4.8,5.4-10.1,14.4-15.8,26.8l-.2.4c-.3.7-.7,1.3-1.1,1.9-1.8,2.3-3.5,2.5-4.6,2.2-2.1-.6-3-3-3.2-4-.1-1.3,0-2.6.4-4,7.7-26.5,15.3-54.9,15-58.8-.1-1.4-.6-2.5-1.5-3.2-1.3-1.1-3.1-1.3-3.7-1.3h-.3c-1.5.2-7,3-11.2,5.3,1.9,7,8.3,34.1-1.4,48.9-1.2,2-2.6,4-4.2,6.1-3.3,4.4-7,9.3-10.2,17.3,2.1,3.3,7.1,5.4,10,6.3h.1c5.7,1.9,7.6,5.2,8.1,7.6,1.1,4.5-1.6,9.1-3.1,10.6-2.1,2.1-4.7,3.2-7.7,3.2h-.2c-3.6,0-7.2-1.6-9.8-4.4-5-5.4-5.7-13.2-2-22.9,3.6-9.5,7.9-15.3,11.4-20,1.5-2.1,2.9-3.9,4-5.7l.1-.1c10-15.2.6-46.7.5-47-1.4-4.2-3.4-4.6-4.8-4.9l-.3-.1c-1.3-.3-12.2-2-15.3-2.4h-.9c-1.8-.1-2.9.3-3.6,1.2-.8,1.1-.6,3-.1,4.2,2.4,5,3.5,7.9,4.7,11.5,3.3,10,3.6,20.7.7,31-.5,1.8-1,3.9-1.4,6-1.1,5.7-1,11.7.3,17.8,1.2,5.7.9,9.5-1,11.7-1.1,1.2-2.5,1.6-3.4,1.5-1.8.1-3.4-.6-4.8-1.9-4.2-4.2-4.4-14.2-4.3-18.4v-.1c.7-7,2-21.7,1.3-30.3-.6-6.4-2.4-19-2.9-21.6-1.3-8.3-3.8-13.7-7.2-15.6-2-1.1-4.4-1.1-7.2,0-2.7,1.1-5.1,3-6.8,5.5-4.9,7-9.6,10.8-14.5,11.6-6.1.9-11.2-3-16.1-6.8-2.1-1.6-4.3-3.3-6.5-4.6-3.2-1.8-6.4-2.3-9.4-1.5-4.6,1.3-7.8,5.4-9,7.2,3,5.4,4.1,12.1,3.4,20.3h0c.1,3.1-1.2,13.4-6,24.4-5.2,11.8-15.9,27.6-37.8,35.8h-.1c-10.2,3.1-10,8.6-10,8.9v.2c0,1.9,1.3,2.7,4.1,3.8,1.9.8,5.5,2.2,4.2,5.8l-.1.1c-1.2,2.6-2.4,5-3.7,7.2.9,2.4,4,9.1,9.1,11.8,6.4,3.4,13.3,3.8,18.5,1.2,6.1-3,10.1-9.9,11.7-20.4v-.1c-.5-.3-1.6-.7-2.4-.9-3-1-7.1-2.4-8.5-6.6-.2-.6-1.4-5.7,7.4-12.3,3.6-2.7,7.6-5.4,11.4-8,12.1-8.2,24.6-16.7,24.3-25.3,0-14,2.6-24.2,7.2-28.9,2.4-2.5,6.4-2.6,8.8-.3.8.7,1.7,2,1.6,4.2,0,4.9-4.6,11.6-13.4,19.8-.1,1.7-.1,3.4-.1,5.2.4,10.8-12.5,19.5-26.1,28.7-.1.1-.2.2-.4.2,3.3.5,7,1.8,9.1,5,2.8,4.2,1.9,10.2-2.4,18-1.7,3-2.9,5.8-3.8,8.4-1.9,5.9-2.1,10.4-.4,12.7,1.1,1.5,2.9,2.2,5.7,2.3h.1c1.3,0,11.2-.8,26.6-2.1,5.2-.4,9.5-4.1,10.8-9,.5-2.2.8-4.7.8-7.5-.2-6.3-.1-42,0-56.1,0-4.5.6-9,1.6-13.3,1.3-5.7,3-10,4.9-12.8,1.9-2.9,4-4.3,6.4-4.3,1.7,0,3.1.6,4.1,1.8,1.6,2,3,6.3-1.1,21.7-3,11.4-4.3,23.3-3.8,35.4.5,12.7,4.5,30.7,7.2,35.5,3.2,5.5,7.6,8.6,11.8,8.4l50-.2c5.1-.2,9.8-3,12.4-7.4,2.1-3.4,3.2-6.6,3.5-9.4v-.3l.1-.1c.2-1.5-.1-9.1-6.4-20.1l-.1-.2c-.1-.3-.2-.6-.4-.9-1.3-2.8-3.7-8.1-.9-15.1,1.2-3.1,7.1-10.3,16.8-21.8,6.5-7.8,13.2-15.8,15.5-19.6,1.2-2,1.5-4.9,1.9-7.7v-.4c.1-1.4,1-9.4,6.5-11,1.7-.5,4.3.3,5.6,2.6,1.8,3.2,1.2,9.2-11.2,19.7-2.9,4.2-8.9,11.4-15.1,19-7.1,8.4-15,18-16.1,20.7-2.1,5.3-.3,9.3.9,11.9.1.3.3.6.4.9,6.7,11.8,7.3,20.5,6.8,23-.4,3.4-1.7,7.1-4.1,11-.4.6-.8,1.2-1.2,1.8,4.2,2.6,15.6,7.9,31.9,3.2,6.6-1.9,13.1-6.1,17.6-11.3,1.1-1.2,2.3-2.6,3.5-4.1,7.2-8.6,14.6-17.6,20.3-14.6,1.4.7,2.3,1.9,2.7,3.3,1,3.5-1.8,7.9-4.7,12.5-1.8,2.9-4.4,6.9-4,8.4,1,3.4,19.1,8.3,48.5,1.8,5-2,9.5-5.3,12.1-9.7Zm-68.2-48.5c14.6-4.6,12.9-15.2,11.4-24.6-.1-.8-.3-1.6-.4-2.4-.5-3.7-1.3-5.9-2.9-10.3-1.6,9.2-8.1,19.4-17.3,27-6,5-26.1,21.8-30.4,30.1-3.3,6.3-4.2,11-2.8,14.1,1.1,2.3,3.7,3.8,7.8,4.7.7.1,7.9.7,13.1-3.9,3.9-3.5,5.9-9.1,5.8-16.8v-.8c-.3-3-1.1-11.8,15.7-17.1Zm-28.4-38.1c4.4-4.7,5.5-7.9,4.9-9.4-.3-.7-.9-.8-1-.8h0c-2.5.7-3.5,6-3.5,7.4l-.1.6c-.1.7-.2,1.4-.3,2.2Zm-63.7,74.5c.7-.8,2.7-3.9,2-6.8-.5-2.1-2.3-3.6-5.5-4.7-1.4-.4-6.8-2.1-10.5-5.7-2.1,6.9-1.4,12.3,2.1,16.1,1.9,2.1,4.4,3.2,7,3.1,2,0,3.6-.6,4.9-2Zm-74.1-72.2c0-.4-.1-1-.4-1.3-.4-.3-.9-.5-1.4-.5-.6,0-1.2.3-1.7.8-2.5,2.6-4.4,7.8-5.3,14.7,7.9-8.1,8.8-12.2,8.8-13.7Zm-39.9-.9c1.4-14.9-3.8-23.9-16.8-29.2-10.7-4.1-20.2-4-28.1.4-18.7,10.2-25.1,41.6-27.2,51.9-.4,1.8-.6,3.1-.8,3.8-4,16-12.2,42.5-21.3,41.5h-.5l-.4-.2c-2.6-1.3-3.4-5.3-2.5-13.3.6-5.4,1.9-12.7,3.9-21.5,3.5-15,7.9-29.8,7.9-30,4-15,3.6-24.8-1.3-30.8-3.8-4.8-11.9-5.5-16.5-5.5-2.1,0-3.4.1-3.5.1-9.5,1-18.6,14-22.4,22.5-1.5,3.2-2.2,6.7-2.2,10.5v.7c.1,1,.3,1.9.7,2.6,1.2,2.2,2,2.9,4.8,4.5,21.5,11.8,17.8,25,11.1,39.8v.1c-.1.1-4.3,8.5-7.5,18.6-4.2,13-4.9,22.7-2,28.2,1.5,2.9,4.1,4.6,7.9,5.2,12.2,1.8,18.2,2.6,21.5,2.4,2.5-.1,2.9-.7,4.5-3.1l.4-.6c.4-.6,4.2-6.8,6.3-9,2.1-2.3,4.9-3.2,7.6-4.2,5.2-1.8,10.1-3.6,11.4-14,.2-1.7.6-4.3,1.1-7.1.5-2.8,1-5.7,1.2-7.7,1.2-9.2,4.8-30.5,7-36.1.1-.2,2.1-5.7,6.4-11.1,5.9-7.3,13.1-10.8,21-9.9,3,.3,4.9,2.3,5,5.1.1,3.3-2.5,11.7-28.9,18.4-2.1,6.5-5.3,25.4-6.4,34.2-.3,2.1-.8,5-1.3,7.9-.5,2.7-.9,5.3-1.1,6.9-1.6,12.9-8.5,15.4-14.1,17.3-2.5.9-4.6,1.6-6,3.1-.5.5-1.1,1.4-1.8,2.4,2.2,2,8.7,7.1,16.4,5.8,7.9-1.3,15-8.8,21.2-22.3-.4-.3-1.2-.6-1.8-.8-2.5-1-6.6-2.7-6.6-7.5-.1-1.2.1-9,12.8-12.9,38.5-14.4,41-53.4,41.1-56.2v-.1l-.2-.8Zm-31.8,10.2c3.3-2.4,4.5-4.5,4.4-5.7,0-.5-.1-1.1-1.4-1.2-.6-.1-1.2-.1-1.9-.1-10.3,0-16.8,9.4-19.6,14.8,8.3-2.3,14.5-4.9,18.5-7.8Z"/>
    <path class="cls-2" d="m460.42,86.95c5.9,21.3-.2,35.5-5.3,44.3-2.6,4.5-7,7.7-12.2,8.9-29.3,6.5-47.5,1.6-48.5-1.8-.4-1.4,2.1-5.4,4-8.4,2.9-4.6,5.7-8.9,4.7-12.5-.4-1.4-1.3-2.5-2.7-3.3-5.6-2.9-13.1,6-20.3,14.6-1.2,1.5-2.4,2.9-3.5,4.1-4.5,5.1-11,9.3-17.6,11.3-16.3,4.8-27.7-.6-31.9-3.2.4-.6.9-1.2,1.2-1.8,2.3-3.9,3.7-7.6,4.1-11,.6-2.5,0-11.1-6.8-22.9-.1-.3-.2-.6-.4-.9-1.2-2.6-3-6.5-.9-11.9,1.1-2.7,9.1-12.2,16.1-20.7,6.3-7.5,12.3-14.7,15.1-19,12.4-10.5,13-16.5,11.2-19.7-1.3-2.3-3.9-3.2-5.6-2.6-5.5,1.6-6.4,9.6-6.5,11v.4c-.3,2.8-.6,5.7-1.9,7.7-2.3,3.8-9,11.8-15.5,19.6-9.6,11.5-15.5,18.7-16.8,21.8-2.8,6.9-.4,12.2.9,15.1.1.3.3.6.4.9l.1.2c6.3,11,6.7,18.6,6.4,20.1l-.1.1v.3c-.3,2.9-1.5,6-3.5,9.4-2.7,4.4-7.3,7.2-12.4,7.4l-50,.2c-4.2.2-8.7-3-11.8-8.4-2.8-4.8-6.8-22.8-7.2-35.5-.4-12.1.8-24,3.8-35.4,4-15.3,2.7-19.6,1.1-21.7-1-1.2-2.4-1.9-4.1-1.8-2.4,0-4.6,1.4-6.4,4.3-1.9,2.9-3.5,7.2-4.9,12.8-1,4.3-1.5,8.8-1.6,13.3-.1,14.2-.1,49.8,0,56.1,0,2.8-.2,5.3-.8,7.5-1.2,5-5.6,8.6-10.8,9-15.4,1.3-25.3,2.1-26.6,2.1h-.1c-2.8-.1-4.6-.8-5.7-2.3-1.7-2.3-1.5-6.9.4-12.7.9-2.7,2.1-5.4,3.8-8.4,4.3-7.8,5.1-13.8,2.4-18-2.1-3.2-5.8-4.5-9.1-5,.1-.1.2-.2.4-.2,13.6-9.2,26.5-17.9,26.1-28.7,0-1.8.1-3.5.1-5.2,8.9-8.3,13.4-14.9,13.4-19.8,0-2.2-.9-3.5-1.6-4.2-2.4-2.3-6.4-2.1-8.8.3-4.6,4.7-7.2,15-7.2,28.9.3,8.6-12.2,17.1-24.3,25.3-3.9,2.6-7.9,5.3-11.4,8-8.8,6.6-7.6,11.7-7.4,12.3,1.4,4.1,5.5,5.5,8.5,6.6.8.3,1.9.6,2.4.9v.1c-1.7,10.5-5.6,17.4-11.7,20.4-5.2,2.6-12.2,2.2-18.5-1.2-5.1-2.7-8.1-9.5-9.1-11.8,1.3-2.2,2.5-4.6,3.7-7.2l.1-.1c1.3-3.5-2.3-5-4.2-5.8-2.8-1.1-4.1-1.9-4.1-3.8v-.2c0-.2-.2-5.7,10-8.9h.1c21.8-8.2,32.6-24,37.8-35.8,4.8-10.9,6.1-21.3,6-24.4h0c.8-8.2-.3-14.9-3.4-20.3,1.2-1.8,4.4-5.9,9-7.2,3-.9,6.2-.4,9.4,1.5,2.2,1.2,4.4,2.9,6.5,4.6,4.9,3.8,10,7.8,16.1,6.8,4.9-.7,9.6-4.5,14.5-11.6,1.8-2.5,4.1-4.5,6.8-5.5,2.8-1.1,5.2-1.1,7.2,0,3.4,1.9,5.9,7.3,7.2,15.6.4,2.6,2.3,15.2,2.9,21.6.8,8.6-.6,23.2-1.3,30.3v.1c-.1,4.1.1,14.2,4.3,18.4,1.3,1.3,3,2,4.8,1.9.9.1,2.3-.3,3.4-1.5,1.9-2.1,2.2-5.9,1-11.7-1.3-6.1-1.4-12.1-.3-17.8.4-2.2.9-4.2,1.4-6,2.9-10.3,2.6-21-.7-31-1.2-3.6-2.2-6.5-4.7-11.5-.5-1.2-.6-3.1.1-4.2.6-.9,1.8-1.3,3.6-1.2h.9c3.1.4,14,2.1,15.3,2.4l.3.1c1.4.3,3.4.7,4.8,4.9.1.3,9.5,31.9-.5,47l-.1.1c-1.1,1.8-2.4,3.7-4,5.7-3.5,4.7-7.8,10.5-11.4,20-3.7,9.8-3,17.5,2,22.9,2.6,2.8,6.2,4.4,9.8,4.4h.2c3-.1,5.6-1.1,7.7-3.2,1.5-1.5,4.2-6.1,3.1-10.6-.6-2.4-2.5-5.7-8.1-7.6h-.1c-2.9-.8-7.9-3-10-6.3,3.2-8,6.9-12.9,10.2-17.3,1.5-2.1,3-4,4.2-6.1,9.7-14.8,3.3-41.9,1.4-48.9,4.2-2.3,9.7-5,11.2-5.3h.3c.6,0,2.4.2,3.7,1.3.9.8,1.4,1.8,1.5,3.2.3,3.9-7.3,32.4-15,58.9-.4,1.3-.5,2.7-.4,4,.1,1.1,1.1,3.5,3.2,4,1.1.3,2.9.2,4.6-2.2.4-.5.8-1.1,1.1-1.9l.2-.4c5.6-12.3,11-21.4,15.8-26.8l.1-.1c7.4-9.3,7.5-17.5,7.7-25.4,0-2.1.1-4.3.2-6.4.5-4.4,1.8-6,3.1-7.5l.2-.3c2.4-1.7,22.9-9.7,40-4.6.2.1.4.1.6.2,11.1,3.7,16.1,12.7,14.8,26.8-.8,8.6-7.1,18.9-16.2,26.4-8,6.5-26.9,22.6-31.4,31.3-3.9,7.6-4.9,13.4-2.8,17.7,1.7,3.5,5.3,5.8,10.7,6.9h.1c.4.1,9.5,1.2,16.3-4.9,4.8-4.3,7.3-10.9,7.2-19.8v-1.2c-.2-2.3-.8-8.4,12.9-12.8,17.9-5.6,15.6-19.8,14.2-29.1-.1-.8-.2-1.6-.4-2.3-.6-4.2-1.5-6.7-3.3-11.7-.3-1-.7-2-1.1-3.2-2-5.7-2.7-9.5-1.1-14.9,2-6.5,5.9-10.3,11.6-11.3h.2c14.6-1.5,27.3,1.5,37.8,8.9,4.6,3.2,6.7,8.2,6.2,14.7-.8,10.8-8,21.1-9.9,22.2-2.5.3-8.1-4.7-9.9-7.3-10.2-15-13.9-18.9-17.1-17.8-2.5.8-2.5,4.2-2.5,5.3.3,20,9.4,27.3,15.4,32.2l.9.7c6,4.8,6.1,4.9,4.2,11.1-1,3.3-7.3,8.8-12.3,13.2-7.6,6.7-11.2,10-10.1,13.1.9,2.4,4.1,2.3,5.2,2.3,9.5-.1,15.7-6,19.5-10.4l.1-.2c6.1-8.7,11.5-14.7,16.1-18,1.4-1,3.4-1.2,5.2-.6,1.1.8,2.8,1.8,3.4,4.1Z"/>
    <path class="cls-2" d="m164.12,16.75c13,5.3,18.2,14.4,16.8,29.2v.5c-.1,2.8-2.6,41.7-41.1,56.2-12.7,3.9-12.9,11.8-12.8,12.9,0,4.8,4.2,6.5,6.6,7.5.6.2,1.4.6,1.8.8-6.1,13.5-13.3,21-21.2,22.3-7.7,1.3-14.2-3.8-16.4-5.8.7-1,1.3-1.8,1.8-2.4,1.4-1.5,3.5-2.3,6-3.1,5.6-1.9,12.5-4.4,14.1-17.3.2-1.6.6-4.2,1.1-6.9.5-2.8,1-5.8,1.3-7.9,1.1-8.8,4.4-27.7,6.4-34.2,26.4-6.7,29.1-15.1,28.9-18.4-.1-2.8-2-4.8-5-5.1-7.8-.8-15.1,2.6-21,9.9-4.3,5.4-6.4,10.9-6.4,11.1-2.2,5.6-5.8,26.9-7,36.1-.3,2-.8,4.9-1.2,7.7-.5,2.8-.9,5.4-1.1,7.1-1.3,10.4-6.2,12.2-11.4,14-2.7.9-5.5,1.9-7.6,4.2-2,2.2-5.9,8.4-6.3,9l-.4.6c-1.6,2.4-2,3-4.5,3.1-3.3.2-9.3-.6-21.5-2.4-3.8-.6-6.3-2.3-7.9-5.2-2.8-5.5-2.1-15.2,2-28.2,3.2-10.1,7.5-18.5,7.5-18.6v-.1c6.7-14.8,10.4-28-11.1-39.8-2.8-1.6-3.7-2.3-4.8-4.5-.4-.7-.6-1.6-.7-2.6v-.7c0-3.7.8-7.2,2.2-10.5,3.8-8.5,13-21.5,22.5-22.7,0,0,1.4-.1,3.5-.1,4.6,0,12.6.7,16.5,5.5,4.9,6,5.3,15.8,1.3,30.8-.1.2-4.4,14.9-7.9,30-2.1,8.9-3.4,16.1-3.9,21.5-.8,8-.1,12,2.5,13.3l.4.2h.4c9.2,1,17.3-25.5,21.3-41.5.2-.7.5-1.9.8-3.8,2.1-10.3,8.5-41.6,27.2-51.9,8.2-3.8,17.6-3.9,28.3.2Z"/>
  </g>
  <path class="cls-1" d="m75.82,45.45c-24.3,3.1-26.9,5.7-30.1,30.1-3.1-24.4-5.7-27-30.1-30.1,24.4-3.2,26.9-5.7,30.1-30.1,3.2,24.3,5.8,26.9,30.1,30.1Z"/>
  <path class="cls-1" d="m489.92,101.95c-14.2,1.8-15.7,3.3-17.6,17.6-1.9-14.2-3.4-15.7-17.6-17.6,14.2-1.8,15.7-3.3,17.6-17.6,1.9,14.3,3.4,15.8,17.6,17.6Z"/>
</svg>